<svg width="200" height="56" viewBox="0 0 200 56" fill="none" xmlns="http://www.w3.org/2000/svg">
<g clip-path="url(#clip0)">
<path d="M33.4169 46.3675C29.832 46.3675 25.8712 45.9124 21.9103 44.8759C15.3673 43.1567 4.21159 38.4795 3.25897 26.5463C3.93583 17.0402 7.72124 5.25869 21.9353 3.13499C23.7152 2.7052 25.3196 2.22483 26.8488 1.76976C30.1329 0.758469 32.9657 -0.0758429 35.9238 3.56557e-06C40.7621 0.126414 45.3999 2.75576 51.4665 8.77292C53.7729 10.9219 54.7004 18.1779 53.7227 26.0154C52.5946 34.8388 49.4861 41.5386 45.3748 43.8899C43.0935 45.3815 38.6814 46.3675 33.4169 46.3675ZM3.48459 26.5463C4.43721 38.3278 15.4675 42.9544 21.9604 44.6736C31.7122 47.2271 41.464 46.2158 45.2494 43.7129C49.2855 41.3869 52.369 34.7883 53.4721 26.0154C54.4497 18.2537 53.5473 11.0736 51.2911 8.94989C45.2745 2.95802 40.6618 0.353954 35.8987 0.227543C32.9657 0.151697 30.1579 0.986008 26.899 1.97201C25.3447 2.42709 23.7403 2.90745 21.9604 3.33725C7.89673 5.43567 4.16145 17.116 3.48459 26.5463Z" fill="url(#paint0_linear)"/>
<path d="M32.9155 46.595C29.5814 46.595 26.0466 46.2411 22.7375 45.4826C17.7488 44.3702 13.9133 42.7016 11.0805 40.4009C6.9441 37.0637 3.10856 33.1449 3.05842 27.0266C3.00828 19.6695 5.74079 12.9445 10.529 8.54538C13.2364 6.06773 16.8965 4.37382 21.7097 3.4131L21.7348 3.51423L21.7097 3.4131C23.7904 2.9833 25.6205 2.45238 27.4004 1.92145C30.2582 1.06186 32.715 0.328675 35.3221 0.379239C39.5087 0.455086 43.62 2.67992 50.5139 8.59594C53.2715 10.9725 54.6252 18.279 53.7478 25.9901C52.7701 34.6113 49.7619 41.3363 45.7258 43.9657C43.0935 45.6849 38.2552 46.595 32.9155 46.595ZM21.7598 3.61536C16.9967 4.57608 13.3618 6.2447 10.6794 8.69707C5.91628 13.0709 3.2339 19.7454 3.28404 27.0519C3.33418 33.0691 7.11959 36.9625 11.2309 40.2492C14.0637 42.5246 17.8491 44.168 22.8127 45.2804C32.364 47.4294 41.8902 46.1905 45.6004 43.7634C49.5864 41.1594 52.5445 34.4849 53.5222 25.9395C54.3996 18.3043 53.071 11.0736 50.3635 8.74764C43.5197 2.88217 39.4585 0.657343 35.3221 0.581497C32.74 0.530932 30.2833 1.26412 27.4756 2.09843C25.6706 2.65463 23.8406 3.21084 21.7598 3.61536Z" fill="url(#paint1_linear)"/>
<path d="M32.4894 46.949C29.5814 46.949 26.548 46.6962 23.615 46.14C19.8546 45.4321 15.0915 44.2438 11.4816 41.1594L11.1808 40.9066C6.94412 37.2912 2.95816 33.8781 2.88295 27.5576C2.80774 20.0741 5.49012 13.2984 10.2783 8.9499C13.0108 6.47225 16.7962 4.7025 21.5092 3.7165L21.5342 3.81762L21.5092 3.7165C23.4395 3.2867 25.1692 2.78106 26.8488 2.27541C29.6816 1.4411 32.1133 0.707918 34.6954 0.758482C38.9571 0.809046 42.893 3.26142 49.5362 8.41898C52.7701 10.9219 54.525 18.3043 53.7478 25.9395C52.8704 34.5102 49.9875 41.2858 46.0517 44.0415C43.3693 45.9377 38.2051 46.949 32.4894 46.949ZM21.5342 3.91875C16.8463 4.90476 13.1111 6.64923 10.4036 9.1016C5.69067 13.3996 3.00829 20.1246 3.10857 27.5576C3.18378 33.777 7.14467 37.1648 11.3312 40.7296L11.632 40.9824C15.2169 44.0415 19.9298 45.2298 23.6651 45.9377C32.364 47.5558 41.9403 46.6709 45.9514 43.8646C49.8371 41.1341 52.6699 34.4343 53.5473 25.9142C54.3244 18.3296 52.5946 11.0483 49.4109 8.57067C42.7927 3.46367 38.907 1.0113 34.6954 0.986022C32.1384 0.960739 29.7067 1.66864 26.899 2.50295C25.2194 2.98331 23.4896 3.51424 21.5342 3.91875Z" fill="url(#paint2_linear)"/>
<path d="M31.9629 47.3282C29.5312 47.3282 26.9742 47.1512 24.4673 46.772C20.2055 46.1147 15.3923 45.0275 11.8576 41.8673C11.3061 41.3616 10.7044 40.856 10.1529 40.3756C6.34242 37.0889 2.75756 34.0045 2.68236 28.0379C2.55701 20.3268 5.16418 13.6776 10.0025 9.30382C12.7851 6.80088 16.5705 5.00585 21.2835 3.96928C23.0885 3.56477 24.718 3.08441 26.2973 2.62933C29.08 1.8203 31.4615 1.1124 34.0185 1.1124C34.0436 1.1124 34.0687 1.1124 34.0937 1.1124C38.3304 1.1124 42.1659 3.69118 48.5836 8.21669C52.2938 10.8207 54.4748 18.2537 53.7729 25.8889C52.9957 34.4343 50.2381 41.2352 46.4026 44.0921C43.6199 46.1905 38.1048 47.3282 31.9629 47.3282ZM34.0185 1.36522C31.5116 1.36522 29.105 2.07312 26.3474 2.88215C24.7681 3.33723 23.1386 3.81759 21.3086 4.2221C16.6458 5.23339 12.8854 7.00314 10.1278 9.50607C5.36473 13.8293 2.78263 20.428 2.90798 28.0632C2.98319 33.9034 6.54297 36.9878 10.3033 40.2239C10.8548 40.7043 11.4314 41.2099 12.008 41.7156C15.4926 44.8505 20.2808 45.9124 24.4923 46.5697C33.2915 47.9097 42.4417 46.7973 46.2522 43.9404C50.0376 41.1088 52.7701 34.3584 53.5472 25.8889C54.2241 18.3296 52.0932 10.9977 48.4582 8.41894C42.0907 3.91872 38.2803 1.36522 34.0937 1.36522C34.0687 1.36522 34.0436 1.36522 34.0185 1.36522Z" fill="url(#paint3_linear)"/>
<path d="M31.3362 47.758C29.3808 47.758 27.3502 47.6316 25.2945 47.4041C20.5816 46.8479 15.7182 45.8871 12.2336 42.6005C11.3562 41.7914 10.4788 41.033 9.60139 40.2745C5.99146 37.2406 2.60715 34.3585 2.48181 28.5689C2.33139 20.7567 4.91349 14.0569 9.72673 9.70836C12.5595 7.18014 16.37 5.33454 21.0579 4.29798C22.7375 3.91874 24.2667 3.46366 25.7458 3.03387C28.5284 2.22484 30.9351 1.51694 33.4921 1.51694C33.5172 1.51694 33.5172 1.51694 33.5422 1.51694C37.5533 1.51694 41.0629 3.79233 47.4054 7.91332L47.631 8.06502C51.8676 10.8208 54.4247 18.1526 53.7979 25.8637C53.1211 34.3838 50.4888 41.2352 46.7285 44.1932C43.8706 46.4686 37.9794 47.758 31.3362 47.758ZM21.083 4.3991L21.108 4.50023C16.4452 5.56208 12.6849 7.35712 9.90221 9.88533C5.13911 14.1833 2.58208 20.8325 2.7325 28.5689C2.83277 34.2573 6.19201 37.0889 9.77687 40.1228C10.6543 40.856 11.5568 41.6397 12.4342 42.4488C15.8686 45.6849 20.6819 46.6456 25.3698 47.2018C34.0937 48.2131 43.0183 46.8984 46.6282 44.0163C50.3134 41.0835 52.9205 34.2826 53.5974 25.8384C54.199 18.1779 51.7172 10.9472 47.5307 8.24199L47.3051 8.0903C40.9877 3.99459 37.5031 1.74448 33.5673 1.74448C33.5422 1.74448 33.5422 1.74448 33.5172 1.74448C30.9852 1.76976 28.6036 2.45238 25.8461 3.26141C24.367 3.6912 22.8378 4.14628 21.1582 4.52551L21.083 4.3991Z" fill="url(#paint4_linear)"/>
<path d="M30.4838 48.2384C29.0549 48.2384 27.6009 48.1878 26.1469 48.0614C21.1833 47.6569 16.1193 46.7973 12.6097 43.3589C11.5317 42.2971 10.3785 41.3363 9.25044 40.4262C5.74079 37.544 2.40662 34.8388 2.28128 29.0998C2.15593 23.4871 3.30911 15.6497 9.47607 10.1129C12.2838 7.58465 16.2196 5.66321 20.8323 4.60136L20.8574 4.70249L20.8323 4.60136C22.3866 4.24741 23.7904 3.84289 25.1692 3.43838C27.9268 2.62935 30.3084 1.94673 32.8654 1.92145C32.9155 1.92145 32.9657 1.92145 33.0158 1.92145C36.7009 1.92145 40.0351 3.91874 45.4751 7.18014L46.6533 7.88804C51.3913 10.7196 54.3244 18.102 53.798 25.8384C53.2214 34.3079 50.7145 41.2099 47.0544 44.2944C44.1464 46.7214 37.6536 48.2384 30.4838 48.2384ZM33.0158 2.1237C32.9657 2.1237 32.9155 2.1237 32.8905 2.1237C30.3836 2.14899 28.002 2.85689 25.2444 3.64063C23.8656 4.04515 22.4618 4.44966 20.9075 4.80361C16.3199 5.86547 12.4342 7.76163 9.65155 10.2646C3.53473 15.7508 2.40662 23.5124 2.5069 29.0745C2.63224 34.6871 5.91628 37.3923 9.40086 40.2239C10.529 41.1341 11.6821 42.0948 12.7852 43.1567C16.2196 46.5445 21.2585 47.3788 26.172 47.8086C34.921 48.5418 43.4696 46.9995 46.9291 44.0668C50.539 41.033 53.0208 34.1815 53.5974 25.7625C54.1239 18.102 51.2159 10.8208 46.553 8.01445L45.3748 7.30655C39.9348 4.09571 36.6508 2.1237 33.0158 2.1237Z" fill="url(#paint5_linear)"/>
<path d="M30.3084 48.7946C29.2304 48.7946 28.1274 48.7693 26.9993 48.6935C21.8852 48.3648 16.5706 47.7327 13.0108 44.0921C11.7573 42.8027 10.3785 41.7156 9.04989 40.679C5.54024 37.9233 2.25621 35.3192 2.1058 29.6054C1.95538 23.9169 3.08348 16.0036 9.22537 10.4921C12.0832 7.91332 16.0441 5.99188 20.6317 4.87946L20.6568 4.98059L20.6317 4.87946C22.0356 4.55079 23.3392 4.17156 24.5926 3.79233C27.2249 3.03386 29.7067 2.32596 32.2637 2.25012C35.8486 2.17427 39.1326 3.99459 44.0963 6.77562C44.5976 7.05373 45.1492 7.35711 45.7007 7.6605C50.1128 10.1129 54.3495 16.6357 53.823 25.7373C53.3467 34.1815 50.9401 41.1088 47.4054 44.2944C44.2718 47.126 37.7789 48.7946 30.3084 48.7946ZM32.4894 2.47766C32.4141 2.47766 32.3389 2.47766 32.2637 2.47766C29.7568 2.52822 27.4004 3.21084 24.6678 3.99459C23.4144 4.34854 22.0857 4.72777 20.6819 5.08172C16.1193 6.16885 12.2086 8.0903 9.37579 10.6438C3.28404 16.1047 2.181 23.9675 2.33142 29.5801C2.48183 35.2181 5.74079 37.7716 9.17524 40.4768C10.5039 41.5133 11.8827 42.6005 13.1612 43.9151C16.6708 47.5052 21.9353 48.1372 26.9993 48.4659C35.7483 49.0221 43.6952 47.3535 47.255 44.1679C50.7646 41.033 53.1211 34.1309 53.5974 25.7625C54.0988 16.7621 49.9373 10.2898 45.5753 7.88804C45.0238 7.58465 44.4974 7.28127 43.9709 7.00316C39.1577 4.29797 35.9238 2.47766 32.4894 2.47766Z" fill="url(#paint6_linear)"/>
<path d="M29.2555 49.3255C28.8042 49.3255 28.3279 49.3255 27.8516 49.3002C22.7877 49.1738 17.072 48.6934 13.3868 44.7747C11.983 43.2831 10.4036 42.1201 8.89949 40.9824C5.38984 38.353 2.08074 35.8754 1.90526 30.0858C1.65457 21.8438 4.11133 15.1946 8.94963 10.846C10.9802 9.02572 14.6152 6.57335 20.4061 5.15755L20.4312 5.25868L20.4061 5.15755C21.6596 4.85416 22.8378 4.50021 23.991 4.17154C26.6232 3.41308 29.1051 2.70518 31.637 2.62933C35.1216 2.5282 38.2803 4.14626 43.0434 6.62391C43.5698 6.90202 44.1464 7.18012 44.723 7.48351C49.5613 9.96116 54.2492 16.5598 53.823 25.712C53.447 34.1309 51.1657 41.1341 47.7313 44.3955C44.5475 47.4546 37.4029 49.3255 29.2555 49.3255ZM20.4563 5.38509C14.7155 6.80089 11.1056 9.22798 9.10004 11.023C4.28681 15.321 1.88019 21.8943 2.13088 30.0858C2.30636 35.7743 5.56532 38.2013 9.02484 40.8054C10.554 41.9431 12.1334 43.1314 13.5372 44.623C17.1722 48.4659 22.8128 48.9463 27.8516 49.0727C36.5004 49.3002 44.2467 47.404 47.5809 44.2185C50.9652 40.9824 53.2214 34.0551 53.6225 25.6867C54.0236 16.6357 49.4109 10.1129 44.6478 7.66048C44.0712 7.3571 43.4946 7.07899 42.9682 6.80089C38.2302 4.34852 35.0965 2.73046 31.6621 2.83159C29.1552 2.90743 26.6734 3.61534 24.0662 4.3738C22.913 4.72775 21.7348 5.0817 20.4563 5.38509Z" fill="url(#paint7_linear)"/>
<path d="M29.3558 49.9576C29.1302 49.9576 28.9296 49.9576 28.704 49.9576C24.0412 49.8817 17.6486 49.7806 13.788 45.5332C12.2588 43.8393 10.5039 42.6005 8.82432 41.3869C5.2896 38.8587 1.93036 36.4569 1.72981 30.6167C1.45405 22.1472 3.81053 15.6244 8.72404 11.2506C11.632 8.67178 15.7183 6.59865 20.2307 5.46095L20.2558 5.56208L20.2307 5.46095C21.3337 5.18285 22.3866 4.87946 23.4144 4.57607C26.0467 3.81761 28.5285 3.10971 31.0605 3.00858C34.4949 2.85689 37.6035 4.34853 42.2663 6.57336C42.7677 6.8009 43.269 7.05373 43.7955 7.30655C46.7285 8.69707 49.3106 11.1494 51.1156 14.2339C53.071 17.5711 54.0236 21.5404 53.8732 25.6867C53.7228 29.7318 52.8955 39.6424 48.0823 44.4966C44.8233 47.7833 37.3528 49.9576 29.3558 49.9576ZM31.4866 3.23612C31.3362 3.23612 31.1858 3.23612 31.0354 3.23612C28.5285 3.33725 26.0467 4.04515 23.4395 4.80361C22.4117 5.107 21.3588 5.41039 20.2558 5.68849C15.7684 6.82619 11.7323 8.84876 8.84939 11.4275C3.98601 15.7508 1.6546 22.1977 1.93036 30.6167C2.13091 36.3558 5.26453 38.6059 8.92459 41.2352C10.6293 42.4488 12.3841 43.7129 13.9384 45.4068C17.7489 49.5783 24.0662 49.6795 28.704 49.7553C36.8765 49.8817 44.5977 47.7075 47.9319 44.3449C52.6699 39.5666 53.4972 29.7065 53.6476 25.6867C53.9735 16.5598 48.8845 9.98646 43.6952 7.53409C43.1688 7.28127 42.6674 7.02844 42.166 6.8009C37.7037 4.6772 34.7205 3.23612 31.4866 3.23612Z" fill="url(#paint8_linear)"/>
<path d="M26.7235 50.6655C21.9353 50.6655 17.3226 49.8564 14.1639 46.2664C12.5345 44.3955 10.6042 43.1061 8.74906 41.842C5.13913 39.3896 1.75482 37.089 1.5292 31.1224C1.2033 22.5517 3.53472 15.9783 8.44823 11.6298C11.3813 9.02575 15.4926 6.92733 19.9799 5.73907L20.005 5.8402L19.9799 5.73907C20.9326 5.48625 21.835 5.23342 22.7375 4.9806C25.3698 4.22214 27.8767 3.51424 30.4337 3.38782C33.8681 3.21085 37.1271 4.62665 41.6395 6.59866C42.0155 6.77564 42.4166 6.95261 42.8178 7.12959C49.7368 10.1382 54.0737 17.3941 53.8732 25.6361C53.7729 29.6813 53.0459 39.5919 48.4081 44.5472C45.3748 47.7833 37.9794 50.1346 29.5312 50.5644C28.6037 50.6402 27.651 50.6655 26.7235 50.6655ZM31.0103 3.61536C30.8097 3.61536 30.6342 3.61536 30.4337 3.64065C27.9017 3.76706 25.4199 4.47496 22.7877 5.23342C21.9103 5.48625 20.9827 5.73907 20.0301 5.99189C15.5678 7.15487 11.5066 9.22801 8.57357 11.8321C3.73527 16.1048 1.42892 22.6023 1.75482 31.1224C1.98044 36.9625 5.1642 39.1368 8.8744 41.665C10.7295 42.9291 12.6598 44.2438 14.3144 46.1147C18.0496 50.3368 23.8406 50.6402 29.5312 50.3621C37.9293 49.9323 45.2745 47.6063 48.2577 44.3955C52.8453 39.4908 53.5723 29.6307 53.6475 25.6361C53.8481 17.4953 49.5362 10.3151 42.7175 7.35713C42.3164 7.18015 41.9153 7.00318 41.5392 6.8262C37.3277 4.9806 34.194 3.61536 31.0103 3.61536Z" fill="url(#paint9_linear)"/>
<path d="M26.5731 51.3986C22.0606 51.3986 17.5482 50.539 14.54 46.9995C12.7851 44.9517 10.7295 43.6117 8.72398 42.3223C5.03884 39.9458 1.57933 37.6957 1.32864 31.628C0.977674 22.8298 3.20881 16.4334 8.17246 12.0343C9.90222 10.5174 13.6876 7.68578 19.7543 6.06772L19.7794 6.16885V6.06772C20.5565 5.86546 21.3086 5.63792 22.0356 5.43566C24.718 4.6772 27.2249 3.94402 29.832 3.79232C33.3417 3.56478 36.6508 4.87946 41.2384 6.72505L41.8902 6.97788C49.3106 9.93589 54.0235 17.2424 53.9233 25.6108C53.8731 29.6307 53.2715 39.5666 48.7841 44.6483C45.826 48.0108 38.6312 50.5896 30.4337 51.2469C29.1552 51.3228 27.8516 51.3986 26.5731 51.3986ZM30.5841 3.9693C30.3334 3.9693 30.0827 3.9693 29.832 3.99458C27.2499 4.14627 24.743 4.87946 22.0857 5.63792C21.3587 5.84018 20.6067 6.06772 19.8295 6.26998C13.813 7.88803 10.0526 10.6691 8.32287 12.186C3.40936 16.5345 1.20329 22.8804 1.55426 31.628C1.80495 37.5693 5.06391 39.693 8.84932 42.1201C10.8799 43.4348 12.9606 44.7747 14.7155 46.8479C18.5259 51.2975 24.7681 51.4492 30.3835 50.9941C38.5309 50.3368 45.6756 47.7833 48.6087 44.4713C53.0459 39.4402 53.6475 29.5801 53.6977 25.5856C53.7979 17.3183 49.1351 10.0876 41.7899 7.15485L41.1381 6.90203C36.9015 5.23341 33.7678 3.9693 30.5841 3.9693Z" fill="url(#paint10_linear)"/>
<path d="M26.548 52.1571C22.2612 52.1571 17.8491 51.2469 14.916 47.7327C13.086 45.5332 10.8548 44.1426 8.6989 42.828C4.93856 40.5273 1.40384 38.3277 1.12808 32.1589C0.726979 23.2596 2.95811 16.8126 7.8967 12.4135C9.65152 10.8713 13.4871 8.03971 19.5287 6.34581C20.1053 6.19411 20.6568 6.01714 21.2083 5.86544C23.9408 5.0817 26.4979 4.34851 29.1802 4.14626C32.8152 3.86815 36.375 5.15754 40.8874 6.7756C48.8092 9.63249 53.9233 16.9896 53.8982 25.5603C53.8982 30.5661 53.2464 39.693 49.085 44.7241C46.202 48.1878 39.2078 50.9941 31.2359 51.879C29.7568 52.0307 28.1524 52.1571 26.548 52.1571ZM19.5788 6.44693L19.6039 6.54806C13.5873 8.21669 9.80194 11.023 8.07218 12.5652C3.15867 16.9138 0.977669 23.3101 1.3537 32.1336C1.62946 38.2013 4.96363 40.2492 8.82425 42.6257C11.0052 43.9657 13.2364 45.3562 15.0915 47.581C19.0524 52.3341 25.7959 52.2329 31.2108 51.6262C39.1326 50.7413 46.0767 47.9603 48.9095 44.5472C53.0459 39.5919 53.6726 30.5156 53.6726 25.535C53.6977 17.0654 48.6337 9.78418 40.7871 6.97786C36.2998 5.3598 32.7651 4.09569 29.1802 4.3738C26.5731 4.57605 24.016 5.30924 21.3086 6.09298C20.7571 6.24468 20.1805 6.42165 19.629 6.57335L19.5788 6.44693Z" fill="url(#paint11_linear)"/>
<path d="M26.6734 52.9156C22.537 52.9156 18.175 51.9801 15.3172 48.4406C13.3869 46.0641 11.0053 44.6736 8.72404 43.3336C4.86342 41.0835 1.25349 38.9598 0.952664 32.6646C0.526492 23.6641 2.70749 17.1666 7.67114 12.8181C9.42597 11.2506 13.3117 8.39368 19.3533 6.64921C19.6792 6.54808 20.0051 6.47224 20.331 6.37111C23.1637 5.56208 25.8211 4.77833 28.6037 4.55079C32.1384 4.24741 35.6982 5.25869 39.9599 6.62393C43.8456 7.86276 47.3553 10.2898 49.8371 13.4754C52.4944 16.8885 53.9233 21.06 53.9735 25.535C54.0236 30.5409 53.4972 39.693 49.4611 44.8C46.6533 48.3648 39.8597 51.3986 32.1134 52.5111C30.4588 52.7386 28.5786 52.9156 26.6734 52.9156ZM19.3783 6.75034L19.4034 6.85147C13.4119 8.57066 9.57638 11.4275 7.82155 12.9698C2.8579 17.3436 0.752113 23.5883 1.17828 32.6393C1.47911 38.8334 4.88849 40.8307 8.82431 43.1314C11.1307 44.4966 13.5373 45.8871 15.4926 48.2889C19.629 53.3707 26.9241 52.9914 32.0883 52.233C39.7594 51.1205 46.528 48.1372 49.2856 44.5977C53.2715 39.5413 53.7729 30.4397 53.7478 25.4591C53.6726 16.7621 48.2327 9.40497 39.9098 6.75034C35.6731 5.41039 32.1384 4.3991 28.6538 4.70248C25.8963 4.93002 23.239 5.71377 20.4062 6.5228C20.0803 6.62393 19.7544 6.69978 19.4285 6.8009L19.3783 6.75034Z" fill="url(#paint12_linear)"/>
<path d="M26.8489 53.6993C21.7599 53.6993 18.0747 52.2077 15.6932 49.1738C13.6877 46.6456 11.1557 45.2298 8.72403 43.8646C4.78821 41.6903 1.10307 39.6172 0.752106 33.1702C0.275796 23.9422 2.38159 17.5964 7.39538 13.1973C10.4287 10.5174 14.7155 8.24198 19.1026 6.95259C21.9855 6.093 24.9436 5.2334 27.977 4.93002C31.3613 4.60135 34.6955 5.25869 38.9823 6.44695C47.7564 8.87404 53.7729 16.5093 53.9484 25.4844C54.0487 30.4903 53.6225 39.6677 49.7619 44.8758C47.0043 48.567 40.4112 51.8284 32.9406 53.1431C30.7346 53.5223 28.704 53.6993 26.8489 53.6993ZM29.7569 5.05643C29.1803 5.05643 28.5786 5.08171 28.0021 5.13227C25.0188 5.43566 22.1861 6.26997 19.1778 7.15485C14.7907 8.44424 10.5541 10.6944 7.54579 13.349C2.60721 17.6975 0.501417 23.9928 0.977727 33.1449C1.30362 39.4655 4.78821 41.4122 8.82431 43.6623C11.2811 45.0275 13.8381 46.4686 15.8687 49.0221C19.0775 53.0673 24.6428 54.3314 32.9156 52.8903C40.336 51.5756 46.904 48.3648 49.6115 44.6989C53.447 39.5413 53.8481 30.4144 53.7479 25.4591C53.5724 16.5851 47.631 9.00045 38.9321 6.62392C35.3974 5.6632 32.5395 5.05643 29.7569 5.05643Z" fill="url(#paint13_linear)"/>
<path d="M27.0995 54.5337C22.1359 54.5337 18.4507 52.9914 16.0692 49.9323C13.9885 47.2271 11.3061 45.8113 8.72399 44.4461C4.71296 42.2971 0.902478 40.2745 0.551513 33.7011C0.225617 27.8357 0.551512 19.3662 7.11957 13.6018C8.57357 12.3377 12.6097 9.17744 18.8769 7.256C21.3838 6.49753 24.3169 5.66322 27.3502 5.30927C30.3585 4.9806 33.6425 5.25871 38.0045 6.26999C42.3414 7.256 46.3274 9.65781 49.1853 12.9698C52.1685 16.4587 53.823 20.782 53.9734 25.4592C54.1489 31.5774 53.6475 39.9206 50.1128 44.9517C47.4555 48.744 40.8874 52.2835 33.7929 53.7752C31.3612 54.2555 29.1301 54.5337 27.0995 54.5337ZM18.9772 7.43297C12.735 9.35442 8.72399 12.4894 7.29506 13.7282C2.33141 18.0768 0.275754 24.4226 0.777133 33.6759C1.1281 40.1481 4.71296 42.0443 8.84933 44.2438C11.4565 45.6343 14.1389 47.0501 16.2697 49.8059C19.5538 54.0533 25.445 55.3174 33.7679 53.5729C40.8122 52.0813 47.3302 48.5923 49.9624 44.8253C53.447 39.8447 53.9734 31.5269 53.7979 25.4592C53.5222 16.2059 47.1797 8.57067 38.0045 6.47225C33.6676 5.48625 30.4086 5.18286 27.4254 5.53681C24.3921 5.8402 21.459 6.67451 18.9772 7.43297Z" fill="url(#paint14_linear)"/>
<path d="M27.4254 55.3427C23.2891 55.3427 19.1527 54.205 16.4703 50.6402C14.3144 47.7833 11.4816 46.3675 8.77415 44.977C4.66285 42.8786 0.777159 40.9066 0.376056 34.1815C2.20239e-05 27.7598 0.401125 19.6443 6.89398 13.9558C8.34798 12.6917 12.4091 9.50611 18.7015 7.5341C21.7849 6.57338 24.342 5.96661 26.7736 5.66322C29.9323 5.2587 33.2916 5.38512 37.077 6.04245C46.6282 7.73636 53.5974 15.675 54.0236 25.358C54.3745 34.3079 53.1712 40.9066 50.4889 44.977C47.8817 48.921 41.5142 52.7133 34.6704 54.3567C32.4142 54.9382 29.9073 55.3427 27.4254 55.3427ZM18.7516 7.73636C12.5094 9.70837 8.47332 12.8686 7.01932 14.1327C0.601676 19.7454 0.200574 27.7851 0.576608 34.1815C0.977711 40.7801 4.61271 42.651 8.84936 44.8C11.5819 46.1905 14.4147 47.6316 16.6207 50.5391C20.8574 56.1517 28.729 55.6208 34.5701 54.205C41.3638 52.5616 47.6561 48.8199 50.2382 44.9011C52.9205 40.856 54.0988 34.3079 53.7478 25.4086C53.3467 15.8267 46.4528 7.9639 37.0018 6.29527C33.2414 5.63794 29.9073 5.51153 26.7736 5.91604C24.367 6.19414 21.8351 6.77563 18.7516 7.73636Z" fill="url(#paint15_linear)"/>
<path d="M28.6287 56C24.7431 56 20.3811 54.9634 16.8463 51.3986L16.8213 51.3733C14.891 47.8338 11.6821 46.3675 8.59866 44.9517C4.43722 43.0555 0.501392 41.2352 0.175496 34.6871C-0.350952 27.8104 -0.100263 19.2397 6.61821 14.335C8.94963 11.9079 13.3868 9.45552 18.4758 7.81218C24.367 5.91601 30.6092 5.20811 36.0993 5.86545C40.8624 6.42166 45.2745 8.72233 48.5586 12.2871C51.8175 15.8519 53.7729 20.4785 53.9985 25.3327C54.2492 30.1616 54.1489 39.1621 50.7646 45.0781C47.9068 49.2749 41.7649 53.2948 35.4726 55.0392C33.6927 55.5196 31.2861 56 28.6287 56ZM17.0218 51.2469C22.888 57.1629 31.0604 56.0253 35.4224 54.8117C41.6897 53.0672 47.7814 49.1232 50.5891 44.9517C53.9484 39.1115 54.0236 30.1616 53.7729 25.358C53.2715 15.3715 45.801 7.28125 36.0492 6.11827C30.6092 5.46094 24.367 6.14355 18.526 8.065C13.4871 9.68306 9.07497 12.0849 6.76863 14.5119C0.175496 19.3156 -0.1504 27.4058 0.401116 34.6871C0.727013 41.1088 4.58763 42.8785 8.69894 44.7494C11.8326 46.1652 15.0665 47.6569 17.0218 51.2469Z" fill="url(#paint16_linear)"/>
<path d="M129.707 32.2347H128.278L128.303 21.5404L123.59 29.5296H122.612L117.849 21.5404L117.899 32.2347H116.47V18.4307H117.573L123.088 27.7851L128.604 18.4307H129.682V32.2347H129.707Z" fill="#000052"/>
<path d="M142.191 28.1138L142.116 28.0632V28.1138H134.244C134.445 29.9088 135.723 31.3246 137.729 31.3246C139.007 31.3246 140.01 30.7684 140.436 29.8835H141.915C141.364 31.4763 139.734 32.5129 137.679 32.5129C134.846 32.5129 132.84 30.3386 132.84 27.5576C132.84 24.8018 134.846 22.6275 137.679 22.6275C140.336 22.6275 142.191 24.7007 142.216 27.5323C142.216 27.7092 142.216 27.9115 142.191 28.1138ZM134.244 27.0266H140.862C140.712 25.1305 139.484 23.8158 137.654 23.8158C135.698 23.8158 134.445 25.2569 134.244 27.0266Z" fill="#000052"/>
<path d="M153.973 32.2348H152.595V31.1982C151.742 32.0072 150.614 32.4876 149.235 32.4876C146.578 32.4876 144.422 30.288 144.422 27.5576C144.422 24.8271 146.578 22.6275 149.235 22.6275C150.614 22.6275 151.742 23.0826 152.595 23.9169V17.8492H153.973V32.2348ZM152.595 29.5549V25.535C151.818 24.372 150.689 23.8158 149.411 23.8158C147.355 23.8158 145.801 25.5097 145.801 27.5576C145.801 29.5801 147.355 31.274 149.411 31.274C150.664 31.274 151.792 30.6926 152.595 29.5549Z" fill="#000052"/>
<path d="M157.408 19.3156C157.408 18.7847 157.809 18.3802 158.361 18.3802C158.887 18.3802 159.313 18.7847 159.313 19.3156C159.313 19.8718 158.887 20.251 158.361 20.251C157.809 20.251 157.408 19.8465 157.408 19.3156ZM159.062 32.2348H157.684V22.8551H159.062V32.2348Z" fill="#000052"/>
<path d="M169.867 29.125H171.296C170.92 31.1476 169.165 32.5129 166.934 32.5129C164.126 32.5129 162.071 30.3386 162.071 27.5576C162.071 24.8018 164.101 22.6275 166.934 22.6275C169.165 22.6275 170.92 24.0181 171.296 26.0153H169.867C169.566 24.726 168.438 23.8916 166.934 23.8916C164.828 23.8916 163.475 25.535 163.475 27.5576C163.475 29.5801 164.853 31.2235 166.934 31.2235C168.438 31.2235 169.566 30.3892 169.867 29.125Z" fill="#000052"/>
<path d="M174.079 19.3156C174.079 18.7847 174.48 18.3802 175.031 18.3802C175.558 18.3802 175.984 18.7847 175.984 19.3156C175.984 19.8718 175.558 20.251 175.031 20.251C174.48 20.251 174.079 19.8465 174.079 19.3156ZM175.733 32.2348H174.354V22.8551H175.733V32.2348Z" fill="#000052"/>
<path d="M188.193 26.8497V32.26H186.814V26.9255C186.814 24.9788 185.686 23.8664 184.006 23.8664C182.828 23.8664 181.599 24.4984 180.797 25.6108V32.2853H179.418V22.8551H180.797V23.9675C181.675 23.0826 182.853 22.5517 184.232 22.5517C186.538 22.5517 188.193 24.195 188.193 26.8497Z" fill="#000052"/>
<path d="M199.975 28.1138L199.9 28.0632V28.1138H192.028C192.229 29.9088 193.507 31.3246 195.513 31.3246C196.791 31.3246 197.794 30.7684 198.22 29.8835H199.699C199.148 31.4763 197.518 32.5129 195.463 32.5129C192.63 32.5129 190.624 30.3386 190.624 27.5576C190.624 24.8018 192.63 22.6275 195.463 22.6275C198.12 22.6275 199.975 24.7007 200 27.5323C200 27.7092 200 27.9115 199.975 28.1138ZM192.028 27.0266H198.646C198.496 25.1305 197.268 23.8158 195.437 23.8158C193.507 23.8158 192.229 25.2569 192.028 27.0266Z" fill="#000052"/>
<path d="M16.6458 32.4117H13.2364V18.5824H16.6458V32.4117Z" fill="#000052"/>
<path d="M29.0799 26.7738V32.4117H25.821V27.3047C25.821 25.9142 25.119 25.2316 24.016 25.2316C23.4394 25.2316 22.8127 25.5603 22.2361 26.2176V32.4117H18.9521V22.5517H22.2361V23.209C23.0133 22.6022 23.8656 22.2483 24.9185 22.2483C27.3753 22.2483 29.0799 23.9675 29.0799 26.7738Z" fill="#000052"/>
<path d="M38.8819 32.2095C37.6034 32.614 36.8764 32.6899 35.9238 32.6899C33.5673 32.6899 31.9879 30.9454 31.9879 28.2908V25.358H30.0827V22.5517H31.9879V19.1892H35.2469V22.5517H38.5811V25.3833H35.2469V28.2149C35.2469 29.2009 35.7984 29.7066 36.7761 29.7066C37.2273 29.7066 37.7789 29.6054 38.5059 29.4537L38.8819 32.2095Z" fill="#000052"/>
<path d="M49.8872 28.493H43.0183C43.269 29.3779 43.8957 30.0099 45.1241 30.0099C45.8009 30.0099 46.3274 29.7571 46.6031 29.302H49.837C49.3607 31.3246 47.4805 32.614 45.0739 32.614C41.8651 32.614 39.7343 30.465 39.7343 27.4564C39.7343 24.4731 41.815 22.3242 44.9486 22.3242C47.7563 22.3242 49.9122 24.2962 49.9122 27.2542C49.9373 27.6587 49.9373 28.1138 49.8872 28.493ZM42.9681 26.4452H46.8037C46.6282 25.4086 45.9764 24.8524 44.9486 24.8524C43.8456 24.8777 43.2188 25.5097 42.9681 26.4452Z" fill="#000052"/>
<path d="M54.9511 32.4117H51.6671V18.0009H54.9511V32.4117Z" fill="#000052"/>
<path d="M60.4663 32.4117H57.1823V18.0009H60.4663V32.4117Z" fill="#000052"/>
<path d="M62.4467 19.1639C62.4467 18.0767 63.2991 17.293 64.352 17.293C65.4049 17.293 66.2572 18.0767 66.2572 19.1639C66.2572 20.2257 65.3798 21.0095 64.352 21.0095C63.2991 21.0095 62.4467 20.2257 62.4467 19.1639ZM66.0065 32.4117H62.7475V22.5517H66.0065V32.4117Z" fill="#000052"/>
<path d="M78.7165 32.2348C78.7165 35.3192 76.5605 37.1142 73.5021 37.1142C70.5189 37.1142 68.363 35.4203 68.2126 32.8415H71.4465C71.5969 33.7517 72.2738 34.3332 73.4771 34.3332C74.6052 34.3332 75.4575 33.6506 75.4575 32.3106V31.3752C74.7305 31.805 73.8782 32.0578 72.8002 32.0578C70.1429 32.0578 67.9368 29.9341 67.9368 27.2542C67.9368 24.2456 70.1429 22.1978 72.8002 22.1978C73.8782 22.1978 74.7305 22.4759 75.4575 22.9309V22.5517H78.7165V32.2348ZM75.4324 28.5183V25.7878C74.8308 25.1052 74.1289 24.8777 73.4269 24.8777C72.0983 24.8777 71.1206 25.8384 71.1206 27.2542C71.1206 28.3413 72.0983 29.4285 73.4269 29.4285C74.1289 29.4285 74.8308 29.2262 75.4324 28.5183Z" fill="#000052"/>
<path d="M90.5741 28.493H83.7052C83.9559 29.3779 84.5826 30.0099 85.811 30.0099C86.4878 30.0099 87.0143 29.7571 87.29 29.302H90.5239C90.0476 31.3246 88.1675 32.614 85.7608 32.614C82.552 32.614 80.4211 30.465 80.4211 27.4564C80.4211 24.4731 82.5019 22.3242 85.6355 22.3242C88.4432 22.3242 90.5991 24.2962 90.5991 27.2542C90.6242 27.6587 90.6242 28.1138 90.5741 28.493ZM83.655 26.4452H87.4906C87.3151 25.4086 86.6633 24.8524 85.6355 24.8524C84.5575 24.8777 83.9057 25.5097 83.655 26.4452Z" fill="#000052"/>
<path d="M102.356 26.7738V32.4117H99.0975V27.3047C99.0975 25.9142 98.3956 25.2316 97.2925 25.2316C96.7159 25.2316 96.0892 25.5603 95.5126 26.2176V32.4117H92.2537V22.5517H95.5126V23.209C96.2898 22.6022 97.1421 22.2483 98.195 22.2483C100.652 22.2483 102.356 23.9675 102.356 26.7738Z" fill="#000052"/>
<path d="M112.158 32.2095C110.88 32.614 110.153 32.6899 109.2 32.6899C106.844 32.6899 105.264 30.9454 105.264 28.2908V25.358H103.359V22.5517H105.264V19.1892H108.523V22.5517H111.858V25.3833H108.549V28.2149C108.549 29.2009 109.1 29.7066 110.078 29.7066C110.529 29.7066 111.08 29.6054 111.807 29.4537L112.158 32.2095Z" fill="#000052"/>
</g>
<defs>
<linearGradient id="paint0_linear" x1="3.26273" y1="23.1818" x2="54.1031" y2="23.1818" gradientUnits="userSpaceOnUse">
<stop offset="0.1816" stop-color="#625EED"/>
<stop offset="0.5447" stop-color="#7BA6EB"/>
<stop offset="0.7849" stop-color="#A3D6DC"/>
<stop offset="0.9358" stop-color="#8FBBEC"/>
</linearGradient>
<linearGradient id="paint1_linear" x1="3.04966" y1="23.6847" x2="54.0114" y2="23.3747" gradientUnits="userSpaceOnUse">
<stop offset="0.1816" stop-color="#625EED"/>
<stop offset="0.5447" stop-color="#7BA6EB"/>
<stop offset="0.7849" stop-color="#A3D6DC"/>
<stop offset="0.9358" stop-color="#8FBBEC"/>
</linearGradient>
<linearGradient id="paint2_linear" x1="2.83704" y1="24.2384" x2="53.9533" y2="23.6163" gradientUnits="userSpaceOnUse">
<stop offset="0.1816" stop-color="#625EED"/>
<stop offset="0.5447" stop-color="#7BA6EB"/>
<stop offset="0.7849" stop-color="#A3D6DC"/>
<stop offset="0.9358" stop-color="#8FBBEC"/>
</linearGradient>
<linearGradient id="paint3_linear" x1="2.62478" y1="24.8057" x2="53.9166" y2="23.869" gradientUnits="userSpaceOnUse">
<stop offset="0.1816" stop-color="#625EED"/>
<stop offset="0.5447" stop-color="#7BA6EB"/>
<stop offset="0.7849" stop-color="#A3D6DC"/>
<stop offset="0.9358" stop-color="#8FBBEC"/>
</linearGradient>
<linearGradient id="paint4_linear" x1="2.4138" y1="25.3891" x2="53.9018" y2="24.135" gradientUnits="userSpaceOnUse">
<stop offset="0.1816" stop-color="#625EED"/>
<stop offset="0.5447" stop-color="#7BA6EB"/>
<stop offset="0.7849" stop-color="#A3D6DC"/>
<stop offset="0.9358" stop-color="#8FBBEC"/>
</linearGradient>
<linearGradient id="paint5_linear" x1="2.20373" y1="25.9833" x2="53.892" y2="24.4091" gradientUnits="userSpaceOnUse">
<stop offset="0.1816" stop-color="#625EED"/>
<stop offset="0.5447" stop-color="#7BA6EB"/>
<stop offset="0.7849" stop-color="#A3D6DC"/>
<stop offset="0.9358" stop-color="#8FBBEC"/>
</linearGradient>
<linearGradient id="paint6_linear" x1="1.99687" y1="26.6342" x2="53.904" y2="24.7366" gradientUnits="userSpaceOnUse">
<stop offset="0.1816" stop-color="#625EED"/>
<stop offset="0.5447" stop-color="#7BA6EB"/>
<stop offset="0.7849" stop-color="#A3D6DC"/>
<stop offset="0.9358" stop-color="#8FBBEC"/>
</linearGradient>
<linearGradient id="paint7_linear" x1="1.79054" y1="27.2584" x2="53.9128" y2="25.0347" gradientUnits="userSpaceOnUse">
<stop offset="0.1816" stop-color="#625EED"/>
<stop offset="0.5447" stop-color="#7BA6EB"/>
<stop offset="0.7849" stop-color="#A3D6DC"/>
<stop offset="0.9358" stop-color="#8FBBEC"/>
</linearGradient>
<linearGradient id="paint8_linear" x1="1.58788" y1="27.9362" x2="53.9318" y2="25.3832" gradientUnits="userSpaceOnUse">
<stop offset="0.1816" stop-color="#625EED"/>
<stop offset="0.5447" stop-color="#7BA6EB"/>
<stop offset="0.7849" stop-color="#A3D6DC"/>
<stop offset="0.9358" stop-color="#8FBBEC"/>
</linearGradient>
<linearGradient id="paint9_linear" x1="1.38604" y1="28.5908" x2="53.9574" y2="25.7053" gradientUnits="userSpaceOnUse">
<stop offset="0.1816" stop-color="#625EED"/>
<stop offset="0.5447" stop-color="#7BA6EB"/>
<stop offset="0.7849" stop-color="#A3D6DC"/>
<stop offset="0.9358" stop-color="#8FBBEC"/>
</linearGradient>
<linearGradient id="paint10_linear" x1="1.18899" y1="29.2991" x2="53.9928" y2="26.0779" gradientUnits="userSpaceOnUse">
<stop offset="0.1816" stop-color="#625EED"/>
<stop offset="0.5447" stop-color="#7BA6EB"/>
<stop offset="0.7849" stop-color="#A3D6DC"/>
<stop offset="0.9358" stop-color="#8FBBEC"/>
</linearGradient>
<linearGradient id="paint11_linear" x1="0.996004" y1="30.0273" x2="54.0361" y2="26.4671" gradientUnits="userSpaceOnUse">
<stop offset="0.1816" stop-color="#625EED"/>
<stop offset="0.5447" stop-color="#7BA6EB"/>
<stop offset="0.7849" stop-color="#A3D6DC"/>
<stop offset="0.9358" stop-color="#8FBBEC"/>
</linearGradient>
<linearGradient id="paint12_linear" x1="0.806286" y1="30.7702" x2="54.0872" y2="26.8675" gradientUnits="userSpaceOnUse">
<stop offset="0.1816" stop-color="#625EED"/>
<stop offset="0.5447" stop-color="#7BA6EB"/>
<stop offset="0.7849" stop-color="#A3D6DC"/>
<stop offset="0.9358" stop-color="#8FBBEC"/>
</linearGradient>
<linearGradient id="paint13_linear" x1="0.620254" y1="31.5197" x2="54.1431" y2="27.2713" gradientUnits="userSpaceOnUse">
<stop offset="0.1816" stop-color="#625EED"/>
<stop offset="0.5447" stop-color="#7BA6EB"/>
<stop offset="0.7849" stop-color="#A3D6DC"/>
<stop offset="0.9358" stop-color="#8FBBEC"/>
</linearGradient>
<linearGradient id="paint14_linear" x1="0.437564" y1="32.2826" x2="54.2085" y2="27.6849" gradientUnits="userSpaceOnUse">
<stop offset="0.1816" stop-color="#625EED"/>
<stop offset="0.5447" stop-color="#7BA6EB"/>
<stop offset="0.7849" stop-color="#A3D6DC"/>
<stop offset="0.9358" stop-color="#8FBBEC"/>
</linearGradient>
<linearGradient id="paint15_linear" x1="0.25841" y1="33.0503" x2="54.2767" y2="28.1" gradientUnits="userSpaceOnUse">
<stop offset="0.1816" stop-color="#625EED"/>
<stop offset="0.5447" stop-color="#7BA6EB"/>
<stop offset="0.7849" stop-color="#A3D6DC"/>
<stop offset="0.9358" stop-color="#8FBBEC"/>
</linearGradient>
<linearGradient id="paint16_linear" x1="0.0711168" y1="33.783" x2="54.3509" y2="28.4755" gradientUnits="userSpaceOnUse">
<stop offset="0.1816" stop-color="#625EED"/>
<stop offset="0.5447" stop-color="#7BA6EB"/>
<stop offset="0.7849" stop-color="#A3D6DC"/>
<stop offset="0.9358" stop-color="#8FBBEC"/>
</linearGradient>
<clipPath id="clip0">
<rect width="200" height="56" fill="white"/>
</clipPath>
</defs>
</svg>
